<mxfile host="app.diagrams.net" modified="2022-08-20T17:31:45.194Z" agent="5.0 (Macintosh; Intel Mac OS X 10_15_7) AppleWebKit/537.36 (KHTML, like Gecko) Chrome/103.0.0.0 Safari/537.36" etag="y7SlrexeQSJwznhcA4n_" version="20.2.5" type="github">
  <diagram name="Page-1" id="8ce9d11a-91a2-4d17-14d8-a56ed91bf033">
    <mxGraphModel dx="2526" dy="1764" grid="1" gridSize="10" guides="1" tooltips="1" connect="1" arrows="1" fold="1" page="1" pageScale="1" pageWidth="1100" pageHeight="850" background="none" math="0" shadow="0">
      <root>
        <mxCell id="0" />
        <mxCell id="1" parent="0" />
        <mxCell id="17ea667e15c223fc-1" value="&lt;font style=&quot;font-size: 18px;&quot;&gt;&lt;b&gt;厅堂预处理&lt;/b&gt;&lt;/font&gt;" style="shape=hexagon;perimeter=hexagonPerimeter;whiteSpace=wrap;html=1;rounded=0;shadow=0;labelBackgroundColor=none;strokeWidth=2;fontFamily=Verdana;fontSize=12;align=center;fillColor=#cce5ff;strokeColor=#36393d;" parent="1" vertex="1">
          <mxGeometry x="-2" y="-105" width="120" height="80" as="geometry" />
        </mxCell>
        <mxCell id="17ea667e15c223fc-29" style="edgeStyle=orthogonalEdgeStyle;rounded=1;html=1;labelBackgroundColor=none;startArrow=none;startFill=0;startSize=5;endArrow=classicThin;endFill=1;endSize=5;jettySize=auto;orthogonalLoop=1;strokeWidth=1;fontFamily=Verdana;fontSize=8;exitX=1;exitY=0.5;exitDx=0;exitDy=0;" parent="1" source="17ea667e15c223fc-2" edge="1">
          <mxGeometry relative="1" as="geometry">
            <mxPoint x="324" y="-64.5" as="sourcePoint" />
            <mxPoint x="350" y="-64" as="targetPoint" />
            <Array as="points" />
          </mxGeometry>
        </mxCell>
        <mxCell id="17ea667e15c223fc-2" value="&lt;font style=&quot;font-size: 14px;&quot;&gt;&lt;b&gt;前台引导员&lt;/b&gt;&lt;/font&gt;&lt;br&gt;预约取号情况核实&lt;br&gt;&lt;font color=&quot;#cc0000&quot;&gt;等候预期&lt;br&gt;业务分流&lt;/font&gt;" style="rounded=1;whiteSpace=wrap;html=1;shadow=0;labelBackgroundColor=none;strokeWidth=2;fontFamily=Verdana;fontSize=12;align=center;fillColor=#cdeb8b;strokeColor=#36393d;" parent="1" vertex="1">
          <mxGeometry x="200" y="-104" width="120" height="80" as="geometry" />
        </mxCell>
        <mxCell id="17ea667e15c223fc-30" style="edgeStyle=orthogonalEdgeStyle;rounded=1;html=1;labelBackgroundColor=none;startArrow=none;startFill=0;startSize=5;endArrow=classicThin;endFill=1;endSize=5;jettySize=auto;orthogonalLoop=1;strokeWidth=1;fontFamily=Verdana;fontSize=8" parent="1" source="17ea667e15c223fc-3" target="17ea667e15c223fc-5" edge="1">
          <mxGeometry relative="1" as="geometry">
            <Array as="points">
              <mxPoint x="381" y="-144" />
            </Array>
          </mxGeometry>
        </mxCell>
        <mxCell id="17ea667e15c223fc-31" style="edgeStyle=orthogonalEdgeStyle;rounded=1;html=1;labelBackgroundColor=none;startArrow=none;startFill=0;startSize=5;endArrow=classicThin;endFill=1;endSize=5;jettySize=auto;orthogonalLoop=1;strokeWidth=1;fontFamily=Verdana;fontSize=8;entryX=0;entryY=0.5;entryDx=0;entryDy=0;exitX=0.5;exitY=1;exitDx=0;exitDy=0;" parent="1" source="17ea667e15c223fc-3" edge="1">
          <mxGeometry relative="1" as="geometry">
            <mxPoint x="321" y="6" as="sourcePoint" />
            <mxPoint x="411" y="17" as="targetPoint" />
            <Array as="points">
              <mxPoint x="381" y="17" />
            </Array>
          </mxGeometry>
        </mxCell>
        <mxCell id="17ea667e15c223fc-3" value="&lt;font style=&quot;font-size: 13px;&quot;&gt;&lt;b style=&quot;&quot;&gt;是否预约并取号&lt;/b&gt;&lt;/font&gt;" style="ellipse;whiteSpace=wrap;html=1;rounded=1;shadow=0;labelBackgroundColor=none;strokeWidth=2;fontFamily=Verdana;fontSize=12;align=center;fillColor=#eeeeee;strokeColor=#36393d;" parent="1" vertex="1">
          <mxGeometry x="351" y="-94" width="60" height="60" as="geometry" />
        </mxCell>
        <mxCell id="17ea667e15c223fc-4" value="&lt;b&gt;&lt;font style=&quot;font-size: 14px;&quot;&gt;已预约&lt;br&gt;未在线取号&lt;/font&gt;&lt;/b&gt;" style="shape=hexagon;perimeter=hexagonPerimeter;whiteSpace=wrap;html=1;rounded=0;shadow=0;labelBackgroundColor=none;strokeWidth=2;fontFamily=Verdana;fontSize=12;align=center;fillColor=#cdeb8b;strokeColor=#36393d;" parent="1" vertex="1">
          <mxGeometry x="412" y="-23" width="120" height="80" as="geometry" />
        </mxCell>
        <mxCell id="17ea667e15c223fc-5" value="&lt;font style=&quot;font-size: 14px;&quot;&gt;&lt;b&gt;未预约&lt;/b&gt;&lt;/font&gt;" style="shape=hexagon;perimeter=hexagonPerimeter;whiteSpace=wrap;html=1;rounded=0;shadow=0;labelBackgroundColor=none;strokeWidth=2;fontFamily=Verdana;fontSize=12;align=center;fillColor=#cdeb8b;strokeColor=#36393d;" parent="1" vertex="1">
          <mxGeometry x="411" y="-184" width="120" height="80" as="geometry" />
        </mxCell>
        <mxCell id="17ea667e15c223fc-7" value="&lt;b&gt;&lt;font style=&quot;font-size: 14px;&quot;&gt;在线取号&lt;/font&gt;&lt;/b&gt;&lt;br&gt;（提前取号情形：仅支持提前15min取号）" style="rounded=1;whiteSpace=wrap;html=1;shadow=0;labelBackgroundColor=none;strokeWidth=2;fontFamily=Verdana;fontSize=12;align=center;fillColor=#cdeb8b;strokeColor=#36393d;" parent="1" vertex="1">
          <mxGeometry x="560" y="-23" width="120" height="80" as="geometry" />
        </mxCell>
        <mxCell id="17ea667e15c223fc-8" value="&lt;font style=&quot;font-size: 14px;&quot;&gt;&lt;b&gt;微信扫码取号&lt;/b&gt;&lt;/font&gt;" style="rounded=1;whiteSpace=wrap;html=1;shadow=0;labelBackgroundColor=none;strokeWidth=2;fontFamily=Verdana;fontSize=12;align=center;fillColor=#cdeb8b;strokeColor=#36393d;" parent="1" vertex="1">
          <mxGeometry x="560" y="-183" width="120" height="80" as="geometry" />
        </mxCell>
        <mxCell id="17ea667e15c223fc-11" value="&lt;b&gt;&lt;font style=&quot;font-size: 14px;&quot;&gt;厅堂等候&lt;/font&gt;&lt;/b&gt;" style="shape=hexagon;perimeter=hexagonPerimeter;whiteSpace=wrap;html=1;rounded=0;shadow=0;labelBackgroundColor=none;strokeWidth=2;fontFamily=Verdana;fontSize=12;align=center;fillColor=#cdeb8b;strokeColor=#36393d;" parent="1" vertex="1">
          <mxGeometry x="841" y="-103" width="120" height="80" as="geometry" />
        </mxCell>
        <mxCell id="17ea667e15c223fc-12" value="&lt;font style=&quot;font-size: 14px;&quot;&gt;&lt;b&gt;柜员叫号&lt;/b&gt;&lt;/font&gt;" style="rounded=1;whiteSpace=wrap;html=1;shadow=0;labelBackgroundColor=none;strokeWidth=2;fontFamily=Verdana;fontSize=12;align=center;strokeColor=#d6b656;fillColor=#fff2cc;" parent="1" vertex="1">
          <mxGeometry x="201" y="318" width="120" height="80" as="geometry" />
        </mxCell>
        <mxCell id="17ea667e15c223fc-43" style="edgeStyle=orthogonalEdgeStyle;rounded=1;html=1;labelBackgroundColor=none;startArrow=none;startFill=0;startSize=5;endArrow=classicThin;endFill=1;endSize=5;jettySize=auto;orthogonalLoop=1;strokeWidth=1;fontFamily=Verdana;fontSize=8;exitX=1;exitY=0.5;exitDx=0;exitDy=0;strokeColor=#000000;" parent="1" edge="1">
          <mxGeometry relative="1" as="geometry">
            <mxPoint x="321" y="359" as="sourcePoint" />
            <mxPoint x="450" y="356" as="targetPoint" />
            <Array as="points">
              <mxPoint x="321" y="356" />
            </Array>
          </mxGeometry>
        </mxCell>
        <mxCell id="3DCjnCyaDHLxvpHJIkyQ-2" value="&lt;font style=&quot;font-size: 14px;&quot;&gt;&lt;b&gt;指引填单&lt;/b&gt;&lt;/font&gt;&lt;br&gt;&lt;font color=&quot;#cc0000&quot;&gt;（提示关注手机端叫号推送消息）&lt;/font&gt;" style="rounded=1;whiteSpace=wrap;html=1;shadow=0;labelBackgroundColor=none;strokeWidth=2;fontFamily=Verdana;fontSize=12;align=center;fillColor=#cdeb8b;strokeColor=#36393d;" parent="1" vertex="1">
          <mxGeometry x="697" y="-100" width="120" height="79" as="geometry" />
        </mxCell>
        <mxCell id="3DCjnCyaDHLxvpHJIkyQ-5" value="是" style="rounded=0;whiteSpace=wrap;html=1;fontSize=14;strokeColor=none;fillColor=none;" parent="1" vertex="1">
          <mxGeometry x="533" y="-93" width="20" height="30" as="geometry" />
        </mxCell>
        <mxCell id="3DCjnCyaDHLxvpHJIkyQ-7" value="否" style="rounded=0;whiteSpace=wrap;html=1;fontSize=14;strokeColor=none;fillColor=none;" parent="1" vertex="1">
          <mxGeometry x="359" y="-25" width="20" height="30" as="geometry" />
        </mxCell>
        <mxCell id="3DCjnCyaDHLxvpHJIkyQ-8" value="否" style="rounded=0;whiteSpace=wrap;html=1;fontSize=14;strokeColor=none;fillColor=none;" parent="1" vertex="1">
          <mxGeometry x="359" y="-127" width="17" height="28" as="geometry" />
        </mxCell>
        <mxCell id="3DCjnCyaDHLxvpHJIkyQ-18" value="&lt;font style=&quot;font-size: 13px;&quot;&gt;&lt;b style=&quot;&quot;&gt;是否应号临柜&lt;/b&gt;&lt;/font&gt;" style="ellipse;whiteSpace=wrap;html=1;rounded=1;shadow=0;labelBackgroundColor=none;strokeWidth=2;fontFamily=Verdana;fontSize=12;align=center;strokeColor=#36393d;fillColor=#eeeeee;" parent="1" vertex="1">
          <mxGeometry x="451" y="325" width="66" height="60" as="geometry" />
        </mxCell>
        <mxCell id="3DCjnCyaDHLxvpHJIkyQ-19" style="edgeStyle=orthogonalEdgeStyle;rounded=1;html=1;labelBackgroundColor=none;startArrow=none;startFill=0;startSize=5;endArrow=classicThin;endFill=1;endSize=5;jettySize=auto;orthogonalLoop=1;strokeWidth=1;fontFamily=Verdana;fontSize=8;strokeColor=#000000;" parent="1" edge="1">
          <mxGeometry relative="1" as="geometry">
            <mxPoint x="518" y="355" as="sourcePoint" />
            <mxPoint x="565" y="355" as="targetPoint" />
            <Array as="points" />
          </mxGeometry>
        </mxCell>
        <mxCell id="3DCjnCyaDHLxvpHJIkyQ-20" value="是" style="rounded=0;whiteSpace=wrap;html=1;fontSize=14;strokeColor=none;fillColor=none;" parent="1" vertex="1">
          <mxGeometry x="525" y="332" width="30" height="20" as="geometry" />
        </mxCell>
        <mxCell id="3DCjnCyaDHLxvpHJIkyQ-23" value="&lt;font style=&quot;font-size: 14px;&quot;&gt;&lt;b&gt;重呼&lt;br&gt;&lt;/b&gt;&lt;/font&gt;（重呼次数视情况灵活调节）" style="shape=hexagon;perimeter=hexagonPerimeter;whiteSpace=wrap;html=1;rounded=0;shadow=0;labelBackgroundColor=none;strokeWidth=2;fontFamily=Verdana;fontSize=12;align=center;strokeColor=#d6b656;fillColor=#fff2cc;" parent="1" vertex="1">
          <mxGeometry x="363" y="418" width="120" height="80" as="geometry" />
        </mxCell>
        <mxCell id="3DCjnCyaDHLxvpHJIkyQ-25" value="否" style="rounded=0;whiteSpace=wrap;html=1;fontSize=14;strokeColor=none;fillColor=none;" parent="1" vertex="1">
          <mxGeometry x="465" y="387" width="17" height="28" as="geometry" />
        </mxCell>
        <mxCell id="3DCjnCyaDHLxvpHJIkyQ-28" value="" style="endArrow=none;html=1;rounded=0;fontSize=14;strokeColor=#000000;" parent="1" edge="1">
          <mxGeometry width="50" height="50" relative="1" as="geometry">
            <mxPoint x="486" y="410" as="sourcePoint" />
            <mxPoint x="486" y="385" as="targetPoint" />
            <Array as="points">
              <mxPoint x="486" y="385" />
            </Array>
          </mxGeometry>
        </mxCell>
        <mxCell id="3DCjnCyaDHLxvpHJIkyQ-29" value="" style="endArrow=classic;html=1;rounded=0;fontSize=14;entryX=0.758;entryY=0.013;entryDx=0;entryDy=0;entryPerimeter=0;strokeColor=#000000;" parent="1" edge="1">
          <mxGeometry width="50" height="50" relative="1" as="geometry">
            <mxPoint x="486" y="411" as="sourcePoint" />
            <mxPoint x="464.96000000000004" y="432.03999999999996" as="targetPoint" />
          </mxGeometry>
        </mxCell>
        <mxCell id="3DCjnCyaDHLxvpHJIkyQ-31" value="&lt;font style=&quot;font-size: 14px;&quot;&gt;&lt;b&gt;过号&lt;br&gt;&lt;/b&gt;&lt;/font&gt;" style="shape=hexagon;perimeter=hexagonPerimeter;whiteSpace=wrap;html=1;rounded=0;shadow=0;labelBackgroundColor=none;strokeWidth=2;fontFamily=Verdana;fontSize=12;align=center;strokeColor=#d6b656;fillColor=#fff2cc;" parent="1" vertex="1">
          <mxGeometry x="489" y="418" width="120" height="80" as="geometry" />
        </mxCell>
        <mxCell id="3DCjnCyaDHLxvpHJIkyQ-32" value="" style="endArrow=classic;html=1;rounded=0;fontSize=14;entryX=0.158;entryY=0.163;entryDx=0;entryDy=0;entryPerimeter=0;strokeColor=#000000;" parent="1" target="3DCjnCyaDHLxvpHJIkyQ-31" edge="1">
          <mxGeometry width="50" height="50" relative="1" as="geometry">
            <mxPoint x="486" y="411" as="sourcePoint" />
            <mxPoint x="516" y="432" as="targetPoint" />
          </mxGeometry>
        </mxCell>
        <mxCell id="3DCjnCyaDHLxvpHJIkyQ-35" style="edgeStyle=orthogonalEdgeStyle;rounded=0;orthogonalLoop=1;jettySize=auto;html=1;exitX=1;exitY=0.5;exitDx=0;exitDy=0;fontSize=14;startArrow=none;startFill=0;strokeColor=#000000;" parent="1" source="3DCjnCyaDHLxvpHJIkyQ-34" edge="1">
          <mxGeometry relative="1" as="geometry">
            <mxPoint x="710" y="355" as="targetPoint" />
          </mxGeometry>
        </mxCell>
        <mxCell id="3DCjnCyaDHLxvpHJIkyQ-34" value="&lt;font style=&quot;font-size: 14px;&quot;&gt;&lt;b&gt;业务受理前&lt;/b&gt;&lt;/font&gt;&lt;br&gt;了解客户情况机业务需求、审核材料" style="rounded=1;whiteSpace=wrap;html=1;shadow=0;labelBackgroundColor=none;strokeWidth=2;fontFamily=Verdana;fontSize=12;align=center;strokeColor=#d6b656;fillColor=#fff2cc;" parent="1" vertex="1">
          <mxGeometry x="565" y="315" width="120" height="80" as="geometry" />
        </mxCell>
        <mxCell id="3DCjnCyaDHLxvpHJIkyQ-37" value="&lt;b&gt;&lt;font style=&quot;font-size: 14px;&quot; color=&quot;#cc0000&quot;&gt;婉拒受理&lt;br&gt;告知原因&lt;/font&gt;&lt;/b&gt;" style="rounded=1;whiteSpace=wrap;html=1;shadow=0;labelBackgroundColor=none;strokeWidth=2;fontFamily=Verdana;fontSize=12;align=center;strokeColor=#d6b656;fillColor=#fff2cc;" parent="1" vertex="1">
          <mxGeometry x="688" y="419" width="120" height="80" as="geometry" />
        </mxCell>
        <mxCell id="3DCjnCyaDHLxvpHJIkyQ-38" value="&lt;font style=&quot;font-size: 14px;&quot;&gt;&lt;b&gt;业务受理中&lt;/b&gt;&lt;/font&gt;&lt;br&gt;（复杂/需复核业务、或系统故障影响业务办理，告知预计业务办理时长）" style="rounded=1;whiteSpace=wrap;html=1;shadow=0;labelBackgroundColor=none;strokeWidth=2;fontFamily=Verdana;fontSize=12;align=center;strokeColor=#d6b656;fillColor=#fff2cc;" parent="1" vertex="1">
          <mxGeometry x="825" y="315" width="120" height="80" as="geometry" />
        </mxCell>
        <mxCell id="3DCjnCyaDHLxvpHJIkyQ-39" style="edgeStyle=orthogonalEdgeStyle;rounded=0;orthogonalLoop=1;jettySize=auto;html=1;exitX=1;exitY=0.5;exitDx=0;exitDy=0;fontSize=14;startArrow=none;startFill=0;strokeColor=#000000;" parent="1" edge="1">
          <mxGeometry relative="1" as="geometry">
            <mxPoint x="970" y="355" as="targetPoint" />
            <mxPoint x="945" y="354.5" as="sourcePoint" />
            <Array as="points" />
          </mxGeometry>
        </mxCell>
        <mxCell id="3DCjnCyaDHLxvpHJIkyQ-40" value="&lt;font style=&quot;font-size: 14px;&quot;&gt;&lt;b&gt;业务办结&lt;/b&gt;&lt;/font&gt;" style="rounded=1;whiteSpace=wrap;html=1;shadow=0;labelBackgroundColor=none;strokeWidth=2;fontFamily=Verdana;fontSize=12;align=center;fillColor=#fff2cc;strokeColor=#d6b656;" parent="1" vertex="1">
          <mxGeometry x="971" y="315" width="120" height="80" as="geometry" />
        </mxCell>
        <mxCell id="3DCjnCyaDHLxvpHJIkyQ-45" value="是" style="rounded=0;whiteSpace=wrap;html=1;fontSize=14;strokeColor=none;fillColor=none;" parent="1" vertex="1">
          <mxGeometry x="781" y="332" width="30" height="20" as="geometry" />
        </mxCell>
        <mxCell id="3DCjnCyaDHLxvpHJIkyQ-47" value="" style="edgeStyle=orthogonalEdgeStyle;rounded=0;orthogonalLoop=1;jettySize=auto;html=1;fontSize=12;startArrow=none;startFill=0;strokeColor=#000000;" parent="1" source="3DCjnCyaDHLxvpHJIkyQ-46" edge="1">
          <mxGeometry relative="1" as="geometry">
            <mxPoint x="825" y="355" as="targetPoint" />
          </mxGeometry>
        </mxCell>
        <mxCell id="3DCjnCyaDHLxvpHJIkyQ-103" value="" style="edgeStyle=orthogonalEdgeStyle;curved=1;rounded=0;orthogonalLoop=1;jettySize=auto;html=1;fontSize=14;fontColor=#CC0000;startArrow=none;startFill=0;strokeColor=#000000;strokeWidth=1;" parent="1" source="3DCjnCyaDHLxvpHJIkyQ-46" target="3DCjnCyaDHLxvpHJIkyQ-37" edge="1">
          <mxGeometry relative="1" as="geometry">
            <Array as="points">
              <mxPoint x="743" y="410" />
              <mxPoint x="743" y="410" />
            </Array>
          </mxGeometry>
        </mxCell>
        <mxCell id="3DCjnCyaDHLxvpHJIkyQ-46" value="&lt;font style=&quot;font-size: 13px;&quot;&gt;&lt;b style=&quot;&quot;&gt;是否符合办理条件&lt;/b&gt;&lt;/font&gt;" style="ellipse;whiteSpace=wrap;html=1;rounded=1;shadow=0;labelBackgroundColor=none;strokeWidth=2;fontFamily=Verdana;fontSize=12;align=center;strokeColor=#36393d;fillColor=#eeeeee;" parent="1" vertex="1">
          <mxGeometry x="710" y="325" width="66" height="60" as="geometry" />
        </mxCell>
        <mxCell id="3DCjnCyaDHLxvpHJIkyQ-53" value="" style="endArrow=classic;html=1;rounded=0;fontSize=12;" parent="1" edge="1">
          <mxGeometry width="50" height="50" relative="1" as="geometry">
            <mxPoint x="545" y="509" as="sourcePoint" />
            <mxPoint x="475" y="509" as="targetPoint" />
            <Array as="points">
              <mxPoint x="530" y="509.5" />
            </Array>
          </mxGeometry>
        </mxCell>
        <mxCell id="3DCjnCyaDHLxvpHJIkyQ-55" value="" style="endArrow=classic;html=1;rounded=0;fontSize=12;" parent="1" edge="1">
          <mxGeometry width="50" height="50" relative="1" as="geometry">
            <mxPoint x="738" y="509" as="sourcePoint" />
            <mxPoint x="668" y="509" as="targetPoint" />
            <Array as="points">
              <mxPoint x="683" y="509" />
            </Array>
          </mxGeometry>
        </mxCell>
        <mxCell id="3DCjnCyaDHLxvpHJIkyQ-57" value="" style="endArrow=classic;html=1;rounded=0;fontSize=12;" parent="1" edge="1">
          <mxGeometry width="50" height="50" relative="1" as="geometry">
            <mxPoint x="1022" y="510" as="sourcePoint" />
            <mxPoint x="952" y="510" as="targetPoint" />
          </mxGeometry>
        </mxCell>
        <mxCell id="3DCjnCyaDHLxvpHJIkyQ-59" style="edgeStyle=orthogonalEdgeStyle;rounded=1;html=1;labelBackgroundColor=none;startArrow=none;startFill=0;startSize=5;endArrow=classicThin;endFill=1;endSize=5;jettySize=auto;orthogonalLoop=1;strokeWidth=1;fontFamily=Verdana;fontSize=8;strokeColor=#000000;entryX=0.5;entryY=1;entryDx=0;entryDy=0;exitX=0.5;exitY=1;exitDx=0;exitDy=0;" parent="1" source="3DCjnCyaDHLxvpHJIkyQ-40" edge="1" target="17ea667e15c223fc-12">
          <mxGeometry relative="1" as="geometry">
            <Array as="points">
              <mxPoint x="1030" y="395" />
              <mxPoint x="1030" y="510" />
              <mxPoint x="260" y="510" />
              <mxPoint x="260" y="420" />
              <mxPoint x="261" y="420" />
            </Array>
            <mxPoint x="1037" y="400" as="sourcePoint" />
            <mxPoint x="250" y="420" as="targetPoint" />
          </mxGeometry>
        </mxCell>
        <mxCell id="3DCjnCyaDHLxvpHJIkyQ-60" style="edgeStyle=orthogonalEdgeStyle;rounded=1;html=1;labelBackgroundColor=none;startArrow=none;startFill=0;startSize=5;endArrow=classicThin;endFill=1;endSize=5;jettySize=auto;orthogonalLoop=1;strokeWidth=1;fontFamily=Verdana;fontSize=8;strokeColor=#000000;" parent="1" source="3DCjnCyaDHLxvpHJIkyQ-37" edge="1">
          <mxGeometry relative="1" as="geometry">
            <Array as="points">
              <mxPoint x="750" y="510" />
              <mxPoint x="260" y="510" />
            </Array>
            <mxPoint x="781" y="488" as="sourcePoint" />
            <mxPoint x="260" y="400" as="targetPoint" />
          </mxGeometry>
        </mxCell>
        <mxCell id="3DCjnCyaDHLxvpHJIkyQ-62" style="edgeStyle=orthogonalEdgeStyle;rounded=1;html=1;labelBackgroundColor=none;startArrow=none;startFill=0;startSize=5;endArrow=classicThin;endFill=1;endSize=5;jettySize=auto;orthogonalLoop=1;strokeWidth=1;fontFamily=Verdana;fontSize=8;strokeColor=#000000;entryX=0.5;entryY=1;entryDx=0;entryDy=0;" parent="1" source="3DCjnCyaDHLxvpHJIkyQ-31" edge="1" target="17ea667e15c223fc-12">
          <mxGeometry relative="1" as="geometry">
            <Array as="points">
              <mxPoint x="550" y="510" />
              <mxPoint x="261" y="510" />
            </Array>
            <mxPoint x="580" y="489" as="sourcePoint" />
            <mxPoint x="250" y="410" as="targetPoint" />
          </mxGeometry>
        </mxCell>
        <mxCell id="3DCjnCyaDHLxvpHJIkyQ-64" style="edgeStyle=orthogonalEdgeStyle;rounded=1;html=1;labelBackgroundColor=none;startArrow=none;startFill=0;startSize=5;endArrow=classicThin;endFill=1;endSize=5;jettySize=auto;orthogonalLoop=1;strokeWidth=1;fontFamily=Verdana;fontSize=8;exitX=0;exitY=0.5;exitDx=0;exitDy=0;strokeColor=#000000;" parent="1" source="3DCjnCyaDHLxvpHJIkyQ-23" edge="1">
          <mxGeometry relative="1" as="geometry">
            <Array as="points">
              <mxPoint x="350" y="458" />
              <mxPoint x="350" y="355" />
            </Array>
            <mxPoint x="398" y="487" as="sourcePoint" />
            <mxPoint x="350" y="355" as="targetPoint" />
          </mxGeometry>
        </mxCell>
        <mxCell id="3DCjnCyaDHLxvpHJIkyQ-69" style="edgeStyle=orthogonalEdgeStyle;rounded=1;html=1;labelBackgroundColor=none;startArrow=none;startFill=0;startSize=5;endArrow=classicThin;endFill=1;endSize=5;jettySize=auto;orthogonalLoop=1;strokeWidth=1;fontFamily=Verdana;fontSize=8" parent="1" edge="1">
          <mxGeometry relative="1" as="geometry">
            <mxPoint x="531" y="16.5" as="sourcePoint" />
            <mxPoint x="560" y="17" as="targetPoint" />
          </mxGeometry>
        </mxCell>
        <mxCell id="3DCjnCyaDHLxvpHJIkyQ-71" value="" style="endArrow=classic;html=1;rounded=0;fontSize=18;curved=1;entryX=-0.025;entryY=0.43;entryDx=0;entryDy=0;entryPerimeter=0;" parent="1" edge="1" target="3DCjnCyaDHLxvpHJIkyQ-2">
          <mxGeometry width="50" height="50" relative="1" as="geometry">
            <mxPoint x="411" y="-64.5" as="sourcePoint" />
            <mxPoint x="690" y="-64" as="targetPoint" />
          </mxGeometry>
        </mxCell>
        <mxCell id="3DCjnCyaDHLxvpHJIkyQ-72" value="" style="endArrow=classic;html=1;rounded=0;fontSize=18;curved=1;entryX=0;entryY=0.5;entryDx=0;entryDy=0;" parent="1" edge="1">
          <mxGeometry width="50" height="50" relative="1" as="geometry">
            <mxPoint x="818" y="-63.5" as="sourcePoint" />
            <mxPoint x="842" y="-63" as="targetPoint" />
          </mxGeometry>
        </mxCell>
        <mxCell id="3DCjnCyaDHLxvpHJIkyQ-73" style="edgeStyle=orthogonalEdgeStyle;rounded=1;html=1;labelBackgroundColor=none;startArrow=none;startFill=0;startSize=5;endArrow=classicThin;endFill=1;endSize=5;jettySize=auto;orthogonalLoop=1;strokeWidth=1;fontFamily=Verdana;fontSize=8;entryX=0.5;entryY=1;entryDx=0;entryDy=0;exitX=1;exitY=0.5;exitDx=0;exitDy=0;" parent="1" target="3DCjnCyaDHLxvpHJIkyQ-2" edge="1">
          <mxGeometry relative="1" as="geometry">
            <mxPoint x="680" y="19" as="sourcePoint" />
            <mxPoint x="753" y="66" as="targetPoint" />
            <Array as="points">
              <mxPoint x="757" y="19" />
            </Array>
          </mxGeometry>
        </mxCell>
        <mxCell id="3DCjnCyaDHLxvpHJIkyQ-74" style="edgeStyle=orthogonalEdgeStyle;rounded=1;html=1;labelBackgroundColor=none;startArrow=none;startFill=0;startSize=5;endArrow=classicThin;endFill=1;endSize=5;jettySize=auto;orthogonalLoop=1;strokeWidth=1;fontFamily=Verdana;fontSize=8;exitX=1;exitY=0.5;exitDx=0;exitDy=0;entryX=0.5;entryY=0;entryDx=0;entryDy=0;" parent="1" source="17ea667e15c223fc-8" target="3DCjnCyaDHLxvpHJIkyQ-2" edge="1">
          <mxGeometry relative="1" as="geometry">
            <mxPoint x="710" y="-154" as="sourcePoint" />
            <mxPoint x="740" y="-214" as="targetPoint" />
            <Array as="points">
              <mxPoint x="757" y="-143" />
            </Array>
          </mxGeometry>
        </mxCell>
        <mxCell id="3DCjnCyaDHLxvpHJIkyQ-75" style="edgeStyle=orthogonalEdgeStyle;rounded=1;html=1;labelBackgroundColor=none;startArrow=none;startFill=0;startSize=5;endArrow=classicThin;endFill=1;endSize=5;jettySize=auto;orthogonalLoop=1;strokeWidth=2;fontFamily=Verdana;fontSize=8;dashed=1;fillColor=#e51400;strokeColor=#B20000;exitX=0.625;exitY=1;exitDx=0;exitDy=0;" parent="1" edge="1" source="17ea667e15c223fc-11">
          <mxGeometry relative="1" as="geometry">
            <mxPoint x="935" y="-60" as="sourcePoint" />
            <mxPoint x="275" y="315" as="targetPoint" />
            <Array as="points">
              <mxPoint x="916" y="290" />
              <mxPoint x="275" y="290" />
            </Array>
          </mxGeometry>
        </mxCell>
        <mxCell id="3DCjnCyaDHLxvpHJIkyQ-77" value="" style="endArrow=classic;html=1;rounded=0;fontSize=18;curved=1;dashed=1;" parent="1" edge="1">
          <mxGeometry width="50" height="50" relative="1" as="geometry">
            <mxPoint x="962" y="-63.5" as="sourcePoint" />
            <mxPoint x="982" y="-63" as="targetPoint" />
          </mxGeometry>
        </mxCell>
        <mxCell id="3DCjnCyaDHLxvpHJIkyQ-78" value="&lt;font style=&quot;&quot;&gt;&lt;span style=&quot;font-weight: bold; font-size: 14px;&quot;&gt;网点预约数管理&lt;/span&gt;&lt;br&gt;&lt;font color=&quot;#cc0000&quot; style=&quot;font-size: 12px;&quot;&gt;号源调整&lt;/font&gt;&lt;br&gt;&lt;font style=&quot;font-size: 12px;&quot;&gt;（根据厅堂等候人数、柜台服务等实际情况灵活调整各时间段号源）&lt;/font&gt;&lt;br&gt;&lt;/font&gt;" style="rounded=1;whiteSpace=wrap;html=1;shadow=0;labelBackgroundColor=none;strokeWidth=2;fontFamily=Verdana;fontSize=12;align=center;strokeColor=#0000CC;" parent="1" vertex="1">
          <mxGeometry x="490" y="190" width="230" height="91" as="geometry" />
        </mxCell>
        <mxCell id="3DCjnCyaDHLxvpHJIkyQ-79" value="&lt;font color=&quot;#000000&quot; style=&quot;&quot;&gt;&lt;span style=&quot;font-weight: bold; font-size: 14px;&quot;&gt;厅堂巡视&lt;/span&gt;&lt;br&gt;&lt;font style=&quot;font-size: 12px;&quot;&gt;高峰期提高等候区客户关注度&lt;/font&gt;&lt;br&gt;&lt;/font&gt;" style="ellipse;whiteSpace=wrap;html=1;fontSize=12;fillColor=#cdeb8b;strokeWidth=2;strokeColor=#36393d;" parent="1" vertex="1">
          <mxGeometry x="983" y="-103" width="120" height="80" as="geometry" />
        </mxCell>
        <mxCell id="3DCjnCyaDHLxvpHJIkyQ-80" value="&lt;font style=&quot;&quot;&gt;&lt;span style=&quot;font-weight: bold; font-size: 14px;&quot;&gt;叫号情况实时查看&lt;/span&gt;&lt;br&gt;&lt;font color=&quot;#cc0000&quot;&gt;后台取号&lt;br&gt;实时查看网点业务情况&lt;br&gt;&lt;/font&gt;（包括但不限于查看预约已取号/未取号、现场取号及取消业务总数、叫号进度等）&lt;br&gt;&lt;/font&gt;" style="rounded=1;whiteSpace=wrap;html=1;shadow=0;labelBackgroundColor=none;strokeWidth=2;fontFamily=Verdana;fontSize=12;align=center;strokeColor=#0000CC;" parent="1" vertex="1">
          <mxGeometry x="490" y="84" width="230" height="99" as="geometry" />
        </mxCell>
        <mxCell id="3DCjnCyaDHLxvpHJIkyQ-83" style="edgeStyle=orthogonalEdgeStyle;rounded=1;html=1;labelBackgroundColor=none;startArrow=none;startFill=0;startSize=5;endArrow=classicThin;endFill=1;endSize=5;jettySize=auto;orthogonalLoop=1;strokeWidth=2;fontFamily=Verdana;fontSize=8;strokeColor=#0000CC;exitX=0.5;exitY=1;exitDx=0;exitDy=0;entryX=1;entryY=0.5;entryDx=0;entryDy=0;" parent="1" edge="1" target="3DCjnCyaDHLxvpHJIkyQ-78" source="17ea667e15c223fc-11">
          <mxGeometry relative="1" as="geometry">
            <mxPoint x="919" y="-60" as="sourcePoint" />
            <mxPoint x="721" y="230" as="targetPoint" />
            <Array as="points">
              <mxPoint x="901" y="236" />
            </Array>
          </mxGeometry>
        </mxCell>
        <mxCell id="3DCjnCyaDHLxvpHJIkyQ-84" style="edgeStyle=orthogonalEdgeStyle;rounded=1;html=1;labelBackgroundColor=none;startArrow=none;startFill=0;startSize=5;endArrow=classicThin;endFill=1;endSize=5;jettySize=auto;orthogonalLoop=1;strokeWidth=2;fontFamily=Verdana;fontSize=8;entryX=0;entryY=0.5;entryDx=0;entryDy=0;exitX=0.5;exitY=0;exitDx=0;exitDy=0;strokeColor=#0000CC;" parent="1" source="17ea667e15c223fc-12" target="3DCjnCyaDHLxvpHJIkyQ-78" edge="1">
          <mxGeometry relative="1" as="geometry">
            <mxPoint x="250" y="330" as="sourcePoint" />
            <mxPoint x="260" y="335" as="targetPoint" />
            <Array as="points">
              <mxPoint x="261" y="236" />
            </Array>
          </mxGeometry>
        </mxCell>
        <mxCell id="3DCjnCyaDHLxvpHJIkyQ-85" style="edgeStyle=orthogonalEdgeStyle;rounded=1;html=1;labelBackgroundColor=none;startArrow=none;startFill=0;startSize=5;endArrow=classicThin;endFill=1;endSize=5;jettySize=auto;orthogonalLoop=1;strokeWidth=1;fontFamily=Verdana;fontSize=8;entryX=0.004;entryY=0.407;entryDx=0;entryDy=0;exitX=0.5;exitY=1;exitDx=0;exitDy=0;strokeColor=#0000CC;entryPerimeter=0;" parent="1" edge="1" target="3DCjnCyaDHLxvpHJIkyQ-78">
          <mxGeometry relative="1" as="geometry">
            <mxPoint x="460" y="144" as="sourcePoint" />
            <mxPoint x="490" y="214" as="targetPoint" />
            <Array as="points">
              <mxPoint x="460" y="227" />
            </Array>
          </mxGeometry>
        </mxCell>
        <mxCell id="3DCjnCyaDHLxvpHJIkyQ-86" style="edgeStyle=orthogonalEdgeStyle;rounded=1;html=1;labelBackgroundColor=none;startArrow=none;startFill=0;startSize=5;endArrow=classicThin;endFill=1;endSize=5;jettySize=auto;orthogonalLoop=1;strokeWidth=1;fontFamily=Verdana;fontSize=8;strokeColor=#0000CC;" parent="1" edge="1">
          <mxGeometry relative="1" as="geometry">
            <mxPoint x="460" y="144" as="sourcePoint" />
            <mxPoint x="490" y="120" as="targetPoint" />
            <Array as="points">
              <mxPoint x="460" y="120" />
              <mxPoint x="490" y="120" />
            </Array>
          </mxGeometry>
        </mxCell>
        <mxCell id="3DCjnCyaDHLxvpHJIkyQ-87" value="" style="endArrow=none;html=1;rounded=0;fontSize=12;fontColor=#CC0000;strokeWidth=1;curved=1;strokeColor=#0000CC;" parent="1" edge="1">
          <mxGeometry width="50" height="50" relative="1" as="geometry">
            <mxPoint x="321" y="175" as="sourcePoint" />
            <mxPoint x="459" y="175" as="targetPoint" />
          </mxGeometry>
        </mxCell>
        <mxCell id="3DCjnCyaDHLxvpHJIkyQ-88" value="&lt;font style=&quot;font-size: 14px;&quot;&gt;&lt;b&gt;后台管理&lt;/b&gt;&lt;/font&gt;" style="rounded=1;whiteSpace=wrap;html=1;shadow=0;labelBackgroundColor=none;strokeWidth=2;fontFamily=Verdana;fontSize=12;align=center;strokeColor=#0000CC;" parent="1" vertex="1">
          <mxGeometry x="201" y="137" width="120" height="80" as="geometry" />
        </mxCell>
        <mxCell id="3DCjnCyaDHLxvpHJIkyQ-89" value="否" style="rounded=0;whiteSpace=wrap;html=1;fontSize=14;strokeColor=none;fillColor=none;" parent="1" vertex="1">
          <mxGeometry x="720" y="386" width="17" height="28" as="geometry" />
        </mxCell>
        <mxCell id="3DCjnCyaDHLxvpHJIkyQ-91" value="&lt;font style=&quot;font-size: 18px;&quot;&gt;&lt;b&gt;预约叫号&lt;br&gt;系统&lt;/b&gt;&lt;/font&gt;" style="shape=hexagon;perimeter=hexagonPerimeter;whiteSpace=wrap;html=1;rounded=0;shadow=0;labelBackgroundColor=none;strokeWidth=2;fontFamily=Verdana;fontSize=12;align=center;fillColor=#cce5ff;strokeColor=#36393d;" parent="1" vertex="1">
          <mxGeometry x="-2" y="150" width="120" height="80" as="geometry" />
        </mxCell>
        <mxCell id="3DCjnCyaDHLxvpHJIkyQ-92" value="" style="strokeWidth=2;html=1;shape=mxgraph.flowchart.annotation_1;align=left;pointerEvents=1;fontSize=12;fontColor=#CC0000;fillColor=none;" parent="1" vertex="1">
          <mxGeometry x="190" y="70" width="11" height="287" as="geometry" />
        </mxCell>
        <mxCell id="3DCjnCyaDHLxvpHJIkyQ-93" value="" style="verticalLabelPosition=bottom;verticalAlign=top;html=1;strokeWidth=2;shape=mxgraph.arrows2.arrow;dy=0.6;dx=40;notch=0;fontSize=12;" parent="1" vertex="1">
          <mxGeometry x="124" y="-78.5" width="60" height="30" as="geometry" />
        </mxCell>
        <mxCell id="3DCjnCyaDHLxvpHJIkyQ-94" value="" style="verticalLabelPosition=bottom;verticalAlign=top;html=1;strokeWidth=2;shape=mxgraph.arrows2.arrow;dy=0.6;dx=40;notch=0;fontSize=12;" parent="1" vertex="1">
          <mxGeometry x="124" y="175" width="60" height="30" as="geometry" />
        </mxCell>
        <mxCell id="3DCjnCyaDHLxvpHJIkyQ-96" style="edgeStyle=orthogonalEdgeStyle;rounded=1;html=1;labelBackgroundColor=none;startArrow=none;startFill=0;startSize=5;endArrow=classicThin;endFill=1;endSize=5;jettySize=auto;orthogonalLoop=1;strokeWidth=1;fontFamily=Verdana;fontSize=8" parent="1" edge="1">
          <mxGeometry relative="1" as="geometry">
            <mxPoint x="531" y="-144.5" as="sourcePoint" />
            <mxPoint x="560" y="-144" as="targetPoint" />
          </mxGeometry>
        </mxCell>
        <mxCell id="3DCjnCyaDHLxvpHJIkyQ-98" value="&lt;font style=&quot;font-size: 14px;&quot;&gt;&lt;b&gt;公众号预约&lt;/b&gt;&lt;/font&gt;" style="rounded=1;whiteSpace=wrap;html=1;shadow=0;labelBackgroundColor=none;strokeWidth=2;fontFamily=Verdana;fontSize=12;align=center;strokeColor=#36393d;fillColor=#ffcccc;" parent="1" vertex="1">
          <mxGeometry x="200" y="28" width="120" height="80" as="geometry" />
        </mxCell>
        <mxCell id="3DCjnCyaDHLxvpHJIkyQ-99" value="" style="endArrow=classic;html=1;rounded=0;fontSize=18;curved=1;dashed=1;strokeColor=#CC0000;" parent="1" edge="1">
          <mxGeometry width="50" height="50" relative="1" as="geometry">
            <mxPoint x="259.5" y="27" as="sourcePoint" />
            <mxPoint x="260" y="-22" as="targetPoint" />
          </mxGeometry>
        </mxCell>
        <mxCell id="3DCjnCyaDHLxvpHJIkyQ-100" value="按时到场" style="rounded=0;whiteSpace=wrap;html=1;fontSize=14;strokeColor=none;fillColor=none;" parent="1" vertex="1">
          <mxGeometry x="220" y="-10" width="40" height="30" as="geometry" />
        </mxCell>
      </root>
    </mxGraphModel>
  </diagram>
</mxfile>
